<svg xmlns="http://www.w3.org/2000/svg" xmlns:xlink="http://www.w3.org/1999/xlink" width="67" zoomAndPan="magnify" viewBox="0 0 50.25 36.000001" height="48" preserveAspectRatio="xMidYMid meet" version="1.0"><defs><clipPath id="cbf93b4b5c"><path d="M 17 17 L 48.476562 17 L 48.476562 35 L 17 35 Z M 17 17 " clip-rule="nonzero"/></clipPath><clipPath id="2267ae0f18"><path d="M 0.3125 19 L 21 19 L 21 31 L 0.3125 31 Z M 0.3125 19 " clip-rule="nonzero"/></clipPath><clipPath id="23d58eb515"><path d="M 0.3125 19 L 18 19 L 18 31 L 0.3125 31 Z M 0.3125 19 " clip-rule="nonzero"/></clipPath></defs><path fill="#ffd950" d="M 21.644531 0 C 21.820312 0 21.96875 0.0898438 22.09375 0.273438 C 22.214844 0.457031 22.277344 0.679688 22.277344 0.9375 L 22.277344 4.609375 C 22.277344 4.871094 22.214844 5.089844 22.09375 5.273438 C 21.96875 5.457031 21.820312 5.550781 21.644531 5.550781 C 21.46875 5.550781 21.320312 5.457031 21.199219 5.273438 C 21.074219 5.089844 21.011719 4.871094 21.011719 4.609375 L 21.011719 0.9375 C 21.011719 0.679688 21.074219 0.457031 21.199219 0.273438 C 21.320312 0.0898438 21.46875 0 21.644531 0 Z M 21.644531 0 " fill-opacity="1" fill-rule="evenodd"/><path fill="#ffd950" d="M 30.300781 2.320312 C 30.453125 2.40625 30.535156 2.558594 30.550781 2.78125 C 30.566406 3 30.507812 3.222656 30.378906 3.449219 L 28.542969 6.628906 C 28.414062 6.851562 28.25 7.011719 28.050781 7.109375 C 27.851562 7.207031 27.675781 7.210938 27.527344 7.125 C 27.375 7.039062 27.292969 6.882812 27.277344 6.664062 C 27.261719 6.441406 27.316406 6.21875 27.449219 5.996094 L 29.285156 2.816406 C 29.414062 2.589844 29.578125 2.429688 29.777344 2.332031 C 29.972656 2.238281 30.148438 2.230469 30.300781 2.320312 Z M 30.300781 2.320312 " fill-opacity="1" fill-rule="evenodd"/><path fill="#ffd950" d="M 36.636719 8.65625 C 36.722656 8.804688 36.71875 8.980469 36.621094 9.179688 C 36.527344 9.378906 36.363281 9.542969 36.140625 9.671875 L 32.960938 11.507812 C 32.734375 11.636719 32.511719 11.695312 32.292969 11.679688 C 32.070312 11.664062 31.917969 11.582031 31.832031 11.429688 C 31.742188 11.277344 31.75 11.105469 31.84375 10.90625 C 31.941406 10.707031 32.101562 10.542969 32.328125 10.414062 L 35.507812 8.578125 C 35.730469 8.449219 35.953125 8.390625 36.175781 8.40625 C 36.394531 8.421875 36.550781 8.503906 36.636719 8.65625 Z M 36.636719 8.65625 " fill-opacity="1" fill-rule="evenodd"/><path fill="#ffd950" d="M 6.652344 25.964844 C 6.742188 26.117188 6.894531 26.199219 7.117188 26.214844 C 7.335938 26.230469 7.558594 26.175781 7.78125 26.042969 L 10.960938 24.207031 C 11.1875 24.078125 11.347656 23.914062 11.445312 23.714844 C 11.542969 23.519531 11.546875 23.34375 11.460938 23.191406 C 11.371094 23.039062 11.21875 22.957031 10.996094 22.941406 C 10.777344 22.925781 10.554688 22.984375 10.328125 23.113281 L 7.152344 24.949219 C 6.925781 25.078125 6.765625 25.242188 6.667969 25.441406 C 6.570312 25.640625 6.566406 25.816406 6.652344 25.964844 Z M 6.652344 25.964844 " fill-opacity="1" fill-rule="evenodd"/><path fill="#ffd950" d="M 38.957031 17.3125 C 38.957031 17.484375 38.863281 17.632812 38.679688 17.757812 C 38.496094 17.882812 38.277344 17.945312 38.015625 17.945312 L 34.347656 17.945312 C 34.085938 17.945312 33.863281 17.882812 33.679688 17.757812 C 33.5 17.632812 33.40625 17.484375 33.40625 17.3125 C 33.40625 17.136719 33.5 16.988281 33.679688 16.863281 C 33.863281 16.738281 34.085938 16.679688 34.347656 16.679688 L 38.015625 16.679688 C 38.277344 16.679688 38.496094 16.738281 38.679688 16.863281 C 38.863281 16.988281 38.957031 17.136719 38.957031 17.3125 Z M 38.957031 17.3125 " fill-opacity="1" fill-rule="evenodd"/><path fill="#ffd950" d="M 4.335938 17.3125 C 4.335938 17.484375 4.425781 17.632812 4.609375 17.757812 C 4.792969 17.882812 5.015625 17.945312 5.273438 17.945312 L 8.945312 17.945312 C 9.203125 17.945312 9.425781 17.882812 9.609375 17.757812 C 9.792969 17.632812 9.882812 17.484375 9.882812 17.3125 C 9.882812 17.136719 9.792969 16.988281 9.609375 16.863281 C 9.425781 16.738281 9.203125 16.679688 8.945312 16.679688 L 5.273438 16.679688 C 5.015625 16.679688 4.792969 16.738281 4.609375 16.863281 C 4.425781 16.988281 4.335938 17.136719 4.335938 17.3125 Z M 4.335938 17.3125 " fill-opacity="1" fill-rule="evenodd"/><path fill="#ffd950" d="M 36.636719 25.964844 C 36.550781 26.117188 36.394531 26.199219 36.175781 26.214844 C 35.953125 26.230469 35.730469 26.175781 35.507812 26.042969 L 32.328125 24.207031 C 32.101562 24.078125 31.941406 23.914062 31.84375 23.714844 C 31.75 23.519531 31.742188 23.34375 31.832031 23.191406 C 31.917969 23.039062 32.070312 22.957031 32.292969 22.941406 C 32.511719 22.925781 32.734375 22.984375 32.960938 23.113281 L 36.140625 24.949219 C 36.363281 25.078125 36.527344 25.242188 36.621094 25.441406 C 36.71875 25.640625 36.722656 25.816406 36.636719 25.964844 Z M 36.636719 25.964844 " fill-opacity="1" fill-rule="evenodd"/><path fill="#ffd950" d="M 6.652344 8.65625 C 6.566406 8.804688 6.570312 8.980469 6.667969 9.179688 C 6.765625 9.378906 6.925781 9.542969 7.152344 9.671875 L 10.328125 11.507812 C 10.554688 11.636719 10.777344 11.695312 10.996094 11.679688 C 11.21875 11.664062 11.371094 11.582031 11.460938 11.429688 C 11.546875 11.277344 11.542969 11.105469 11.445312 10.90625 C 11.347656 10.707031 11.1875 10.542969 10.960938 10.414062 L 7.78125 8.578125 C 7.558594 8.449219 7.335938 8.390625 7.117188 8.40625 C 6.894531 8.421875 6.742188 8.503906 6.652344 8.65625 Z M 6.652344 8.65625 " fill-opacity="1" fill-rule="evenodd"/><path fill="#ffd950" d="M 30.300781 32.300781 C 30.148438 32.390625 29.972656 32.386719 29.777344 32.289062 C 29.578125 32.191406 29.414062 32.03125 29.285156 31.804688 L 27.449219 28.625 C 27.316406 28.402344 27.261719 28.179688 27.277344 27.957031 C 27.292969 27.738281 27.375 27.582031 27.527344 27.496094 C 27.675781 27.410156 27.851562 27.414062 28.050781 27.511719 C 28.25 27.609375 28.414062 27.769531 28.542969 27.992188 L 30.378906 31.171875 C 30.507812 31.398438 30.566406 31.621094 30.550781 31.839844 C 30.535156 32.0625 30.453125 32.214844 30.300781 32.300781 Z M 30.300781 32.300781 " fill-opacity="1" fill-rule="evenodd"/><path fill="#ffd950" d="M 12.988281 2.320312 C 12.839844 2.40625 12.753906 2.558594 12.738281 2.78125 C 12.726562 3 12.78125 3.222656 12.910156 3.449219 L 14.746094 6.628906 C 14.875 6.851562 15.042969 7.011719 15.238281 7.109375 C 15.4375 7.207031 15.613281 7.210938 15.765625 7.125 C 15.914062 7.039062 16 6.882812 16.015625 6.664062 C 16.03125 6.441406 15.972656 6.21875 15.84375 5.996094 L 14.007812 2.816406 C 13.878906 2.589844 13.714844 2.429688 13.515625 2.332031 C 13.316406 2.238281 13.140625 2.230469 12.988281 2.320312 Z M 12.988281 2.320312 " fill-opacity="1" fill-rule="evenodd"/><path fill="#ffd950" d="M 31.523438 17.3125 C 31.523438 17.960938 31.460938 18.601562 31.332031 19.238281 C 31.207031 19.875 31.019531 20.492188 30.769531 21.089844 C 30.523438 21.691406 30.21875 22.257812 29.859375 22.796875 C 29.5 23.339844 29.089844 23.835938 28.628906 24.296875 C 28.171875 24.753906 27.671875 25.164062 27.132812 25.523438 C 26.59375 25.882812 26.023438 26.1875 25.425781 26.4375 C 24.824219 26.683594 24.207031 26.871094 23.574219 27 C 22.9375 27.125 22.292969 27.1875 21.644531 27.1875 C 20.996094 27.1875 20.355469 27.125 19.71875 27 C 19.082031 26.871094 18.464844 26.683594 17.863281 26.4375 C 17.265625 26.1875 16.695312 25.882812 16.15625 25.523438 C 15.617188 25.164062 15.117188 24.753906 14.660156 24.296875 C 14.203125 23.835938 13.792969 23.339844 13.433594 22.796875 C 13.070312 22.257812 12.765625 21.691406 12.519531 21.089844 C 12.269531 20.492188 12.082031 19.875 11.957031 19.238281 C 11.832031 18.601562 11.765625 17.960938 11.765625 17.3125 C 11.765625 16.664062 11.832031 16.019531 11.957031 15.382812 C 12.082031 14.746094 12.269531 14.128906 12.519531 13.53125 C 12.765625 12.929688 13.070312 12.363281 13.433594 11.824219 C 13.792969 11.285156 14.203125 10.785156 14.660156 10.324219 C 15.117188 9.867188 15.617188 9.457031 16.15625 9.097656 C 16.695312 8.738281 17.265625 8.433594 17.863281 8.183594 C 18.464844 7.9375 19.082031 7.75 19.71875 7.621094 C 20.355469 7.496094 20.996094 7.433594 21.644531 7.433594 C 22.292969 7.433594 22.9375 7.496094 23.574219 7.621094 C 24.207031 7.75 24.824219 7.9375 25.425781 8.183594 C 26.023438 8.433594 26.59375 8.738281 27.132812 9.097656 C 27.671875 9.457031 28.171875 9.867188 28.628906 10.324219 C 29.089844 10.785156 29.5 11.285156 29.859375 11.824219 C 30.21875 12.363281 30.523438 12.929688 30.769531 13.53125 C 31.019531 14.128906 31.207031 14.746094 31.332031 15.382812 C 31.460938 16.019531 31.523438 16.664062 31.523438 17.3125 Z M 31.523438 17.3125 " fill-opacity="1" fill-rule="nonzero"/><g clip-path="url(#cbf93b4b5c)"><path fill="#dddbde" d="M 22.664062 34.371094 C 37.984375 34.304688 45.640625 34.273438 45.640625 34.273438 C 47.464844 34.007812 48.816406 32.445312 48.816406 30.601562 C 48.816406 28.757812 47.464844 27.195312 45.640625 26.929688 C 46.21875 26.152344 46.1875 25.082031 45.5625 24.34375 C 44.941406 23.605469 43.890625 23.394531 43.027344 23.832031 C 43.148438 22.164062 42.0625 20.644531 40.445312 20.21875 C 38.824219 19.792969 37.132812 20.585938 36.417969 22.101562 C 35.191406 18.566406 31.441406 16.582031 27.828125 17.550781 C 24.214844 18.515625 21.960938 22.113281 22.664062 25.785156 C 20.882812 25.347656 19.011719 26.054688 17.96875 27.566406 C 16.925781 29.078125 16.925781 31.078125 17.96875 32.589844 C 19.011719 34.101562 20.882812 34.808594 22.664062 34.371094 Z M 22.664062 34.371094 " fill-opacity="1" fill-rule="evenodd"/></g><path fill="#ffffff" d="M 44.601562 23.703125 C 44.09375 23.542969 43.527344 23.578125 43.027344 23.832031 C 43.148438 22.164062 42.0625 20.644531 40.445312 20.21875 C 38.824219 19.792969 37.132812 20.585938 36.417969 22.101562 C 35.191406 18.566406 31.441406 16.582031 27.828125 17.550781 C 24.214844 18.515625 21.960938 22.113281 22.664062 25.785156 C 20.882812 25.347656 19.011719 26.054688 17.96875 27.566406 C 16.925781 29.078125 16.925781 31.078125 17.96875 32.589844 C 18.015625 32.65625 18.0625 32.722656 18.113281 32.785156 C 20.453125 33.351562 23.046875 33.667969 25.777344 33.667969 C 36.019531 33.667969 44.351562 29.230469 44.601562 23.703125 Z M 44.601562 23.703125 " fill-opacity="1" fill-rule="evenodd"/><g clip-path="url(#2267ae0f18)"><path fill="#dddbde" d="M 3.976562 30.65625 C 13.71875 30.617188 18.589844 30.597656 18.589844 30.597656 C 19.75 30.425781 20.609375 29.433594 20.609375 28.261719 C 20.609375 27.089844 19.75 26.09375 18.589844 25.925781 C 18.957031 25.429688 18.9375 24.75 18.539062 24.28125 C 18.144531 23.808594 17.476562 23.675781 16.925781 23.957031 C 17.003906 22.894531 16.3125 21.925781 15.285156 21.65625 C 14.253906 21.386719 13.179688 21.890625 12.722656 22.855469 C 11.941406 20.605469 9.558594 19.34375 7.261719 19.957031 C 4.960938 20.574219 3.53125 22.859375 3.976562 25.199219 C 2.84375 24.917969 1.652344 25.367188 0.988281 26.332031 C 0.328125 27.292969 0.328125 28.5625 0.988281 29.523438 C 1.652344 30.484375 2.84375 30.9375 3.976562 30.65625 Z M 3.976562 30.65625 " fill-opacity="1" fill-rule="evenodd"/></g><g clip-path="url(#23d58eb515)"><path fill="#ffffff" d="M 17.929688 23.871094 C 17.605469 23.769531 17.246094 23.792969 16.925781 23.957031 C 17.003906 22.894531 16.3125 21.925781 15.285156 21.65625 C 14.253906 21.386719 13.179688 21.890625 12.722656 22.855469 C 11.941406 20.605469 9.558594 19.34375 7.261719 19.957031 C 4.960938 20.574219 3.53125 22.859375 3.976562 25.199219 C 2.84375 24.917969 1.652344 25.367188 0.988281 26.332031 C 0.328125 27.292969 0.328125 28.5625 0.988281 29.523438 C 1.019531 29.566406 1.050781 29.609375 1.082031 29.648438 C 2.570312 30.007812 4.21875 30.210938 5.957031 30.210938 C 12.46875 30.210938 17.769531 27.386719 17.929688 23.871094 Z M 17.929688 23.871094 " fill-opacity="1" fill-rule="evenodd"/></g></svg>